<mxfile host="app.diagrams.net" modified="2020-11-29T05:39:00.669Z" agent="5.0 (Windows NT 10.0; Win64; x64) AppleWebKit/537.36 (KHTML, like Gecko) Chrome/86.0.4240.198 Safari/537.36" etag="7Ts95fdKo0zfbq1Fq80b" version="13.7.1" type="github">
  <diagram id="C5RBs43oDa-KdzZeNtuy" name="Page-1">
    <mxGraphModel dx="2310" dy="829" grid="1" gridSize="10" guides="1" tooltips="1" connect="1" arrows="1" fold="1" page="1" pageScale="1" pageWidth="827" pageHeight="1169" math="0" shadow="0">
      <root>
        <mxCell id="WIyWlLk6GJQsqaUBKTNV-0" />
        <mxCell id="WIyWlLk6GJQsqaUBKTNV-1" parent="WIyWlLk6GJQsqaUBKTNV-0" />
        <mxCell id="WIyWlLk6GJQsqaUBKTNV-2" value="" style="rounded=0;html=1;jettySize=auto;orthogonalLoop=1;fontSize=11;endArrow=block;endFill=0;endSize=8;strokeWidth=1;shadow=0;labelBackgroundColor=none;edgeStyle=orthogonalEdgeStyle;" parent="WIyWlLk6GJQsqaUBKTNV-1" source="WIyWlLk6GJQsqaUBKTNV-3" target="WIyWlLk6GJQsqaUBKTNV-6" edge="1">
          <mxGeometry relative="1" as="geometry" />
        </mxCell>
        <mxCell id="WIyWlLk6GJQsqaUBKTNV-3" value="Inicialización" style="rounded=1;whiteSpace=wrap;html=1;fontSize=12;glass=0;strokeWidth=1;shadow=0;" parent="WIyWlLk6GJQsqaUBKTNV-1" vertex="1">
          <mxGeometry x="135" y="60" width="120" height="40" as="geometry" />
        </mxCell>
        <mxCell id="WIyWlLk6GJQsqaUBKTNV-4" value="no" style="rounded=0;html=1;jettySize=auto;orthogonalLoop=1;fontSize=11;endArrow=block;endFill=0;endSize=8;strokeWidth=1;shadow=0;labelBackgroundColor=none;edgeStyle=orthogonalEdgeStyle;" parent="WIyWlLk6GJQsqaUBKTNV-1" source="WIyWlLk6GJQsqaUBKTNV-6" target="WIyWlLk6GJQsqaUBKTNV-10" edge="1">
          <mxGeometry y="20" relative="1" as="geometry">
            <mxPoint as="offset" />
          </mxGeometry>
        </mxCell>
        <mxCell id="WIyWlLk6GJQsqaUBKTNV-5" value="sí" style="edgeStyle=orthogonalEdgeStyle;rounded=0;html=1;jettySize=auto;orthogonalLoop=1;fontSize=11;endArrow=block;endFill=0;endSize=8;strokeWidth=1;shadow=0;labelBackgroundColor=none;" parent="WIyWlLk6GJQsqaUBKTNV-1" source="WIyWlLk6GJQsqaUBKTNV-6" target="WIyWlLk6GJQsqaUBKTNV-7" edge="1">
          <mxGeometry y="10" relative="1" as="geometry">
            <mxPoint as="offset" />
          </mxGeometry>
        </mxCell>
        <mxCell id="WIyWlLk6GJQsqaUBKTNV-6" value="T &amp;lt;= Horizonte temporal" style="rhombus;whiteSpace=wrap;html=1;shadow=0;fontFamily=Helvetica;fontSize=12;align=center;strokeWidth=1;spacing=6;spacingTop=-4;" parent="WIyWlLk6GJQsqaUBKTNV-1" vertex="1">
          <mxGeometry x="120" y="170" width="150" height="110" as="geometry" />
        </mxCell>
        <mxCell id="WIyWlLk6GJQsqaUBKTNV-7" value="Terminar" style="rounded=1;whiteSpace=wrap;html=1;fontSize=12;glass=0;strokeWidth=1;shadow=0;" parent="WIyWlLk6GJQsqaUBKTNV-1" vertex="1">
          <mxGeometry x="390" y="205" width="120" height="40" as="geometry" />
        </mxCell>
        <mxCell id="WIyWlLk6GJQsqaUBKTNV-8" value="TPE_1_1" style="rounded=0;html=1;jettySize=auto;orthogonalLoop=1;fontSize=11;endArrow=block;endFill=0;endSize=8;strokeWidth=1;shadow=0;labelBackgroundColor=none;edgeStyle=orthogonalEdgeStyle;" parent="WIyWlLk6GJQsqaUBKTNV-1" source="WIyWlLk6GJQsqaUBKTNV-10" target="WIyWlLk6GJQsqaUBKTNV-11" edge="1">
          <mxGeometry x="0.3333" y="20" relative="1" as="geometry">
            <mxPoint as="offset" />
          </mxGeometry>
        </mxCell>
        <mxCell id="WIyWlLk6GJQsqaUBKTNV-9" value="TPE_2_2" style="edgeStyle=orthogonalEdgeStyle;rounded=0;html=1;jettySize=auto;orthogonalLoop=1;fontSize=11;endArrow=block;endFill=0;endSize=8;strokeWidth=1;shadow=0;labelBackgroundColor=none;" parent="WIyWlLk6GJQsqaUBKTNV-1" source="WIyWlLk6GJQsqaUBKTNV-10" target="WIyWlLk6GJQsqaUBKTNV-12" edge="1">
          <mxGeometry y="10" relative="1" as="geometry">
            <mxPoint as="offset" />
          </mxGeometry>
        </mxCell>
        <mxCell id="WIyWlLk6GJQsqaUBKTNV-10" value="¿Prox. evento?" style="rhombus;whiteSpace=wrap;html=1;shadow=0;fontFamily=Helvetica;fontSize=12;align=center;strokeWidth=1;spacing=6;spacingTop=-4;" parent="WIyWlLk6GJQsqaUBKTNV-1" vertex="1">
          <mxGeometry x="145" y="330" width="100" height="80" as="geometry" />
        </mxCell>
        <mxCell id="gjDzlyAbSF0-AVPSgwuK-42" style="edgeStyle=orthogonalEdgeStyle;rounded=0;orthogonalLoop=1;jettySize=auto;html=1;exitX=0.5;exitY=1;exitDx=0;exitDy=0;entryX=0.5;entryY=0;entryDx=0;entryDy=0;" edge="1" parent="WIyWlLk6GJQsqaUBKTNV-1" source="WIyWlLk6GJQsqaUBKTNV-11" target="gjDzlyAbSF0-AVPSgwuK-43">
          <mxGeometry relative="1" as="geometry">
            <mxPoint x="-325" y="620" as="targetPoint" />
          </mxGeometry>
        </mxCell>
        <mxCell id="WIyWlLk6GJQsqaUBKTNV-11" value="&lt;div&gt;T = TPE_1_1&lt;/div&gt;&lt;div&gt;TPE_1_1 = T + TL_1&lt;/div&gt;&lt;div&gt;&amp;nbsp; NLLEG1 += 1&lt;/div&gt;" style="rounded=1;whiteSpace=wrap;html=1;fontSize=12;glass=0;strokeWidth=1;shadow=0;" parent="WIyWlLk6GJQsqaUBKTNV-1" vertex="1">
          <mxGeometry x="-260" y="470" width="130" height="90" as="geometry" />
        </mxCell>
        <mxCell id="gjDzlyAbSF0-AVPSgwuK-17" style="edgeStyle=orthogonalEdgeStyle;rounded=0;orthogonalLoop=1;jettySize=auto;html=1;exitX=0.5;exitY=1;exitDx=0;exitDy=0;entryX=0.5;entryY=0;entryDx=0;entryDy=0;" edge="1" parent="WIyWlLk6GJQsqaUBKTNV-1" source="WIyWlLk6GJQsqaUBKTNV-12" target="gjDzlyAbSF0-AVPSgwuK-18">
          <mxGeometry relative="1" as="geometry">
            <mxPoint x="670" y="570" as="targetPoint" />
          </mxGeometry>
        </mxCell>
        <mxCell id="WIyWlLk6GJQsqaUBKTNV-12" value="T = TPE_2_2" style="rounded=1;whiteSpace=wrap;html=1;fontSize=12;glass=0;strokeWidth=1;shadow=0;" parent="WIyWlLk6GJQsqaUBKTNV-1" vertex="1">
          <mxGeometry x="540" y="475" width="120" height="40" as="geometry" />
        </mxCell>
        <mxCell id="gjDzlyAbSF0-AVPSgwuK-0" value="T = TPE_2_1" style="rounded=1;whiteSpace=wrap;html=1;fontSize=12;glass=0;strokeWidth=1;shadow=0;" vertex="1" parent="WIyWlLk6GJQsqaUBKTNV-1">
          <mxGeometry x="370" y="475" width="120" height="40" as="geometry" />
        </mxCell>
        <mxCell id="gjDzlyAbSF0-AVPSgwuK-1" value="TPE_2_1" style="edgeStyle=orthogonalEdgeStyle;rounded=0;html=1;jettySize=auto;orthogonalLoop=1;fontSize=11;endArrow=block;endFill=0;endSize=8;strokeWidth=1;shadow=0;labelBackgroundColor=none;entryX=0.5;entryY=0;entryDx=0;entryDy=0;exitX=0.5;exitY=1;exitDx=0;exitDy=0;" edge="1" parent="WIyWlLk6GJQsqaUBKTNV-1" source="WIyWlLk6GJQsqaUBKTNV-10" target="gjDzlyAbSF0-AVPSgwuK-0">
          <mxGeometry y="10" relative="1" as="geometry">
            <mxPoint as="offset" />
            <mxPoint x="255" y="380" as="sourcePoint" />
            <mxPoint x="1210" y="500" as="targetPoint" />
            <Array as="points">
              <mxPoint x="430" y="410" />
            </Array>
          </mxGeometry>
        </mxCell>
        <mxCell id="gjDzlyAbSF0-AVPSgwuK-27" style="edgeStyle=orthogonalEdgeStyle;rounded=0;orthogonalLoop=1;jettySize=auto;html=1;exitX=0.5;exitY=1;exitDx=0;exitDy=0;entryX=0.5;entryY=0;entryDx=0;entryDy=0;" edge="1" parent="WIyWlLk6GJQsqaUBKTNV-1" source="gjDzlyAbSF0-AVPSgwuK-3" target="gjDzlyAbSF0-AVPSgwuK-28">
          <mxGeometry relative="1" as="geometry">
            <mxPoint x="-5" y="670" as="targetPoint" />
          </mxGeometry>
        </mxCell>
        <mxCell id="gjDzlyAbSF0-AVPSgwuK-3" value="&lt;div&gt;T = TPE_1_2&lt;/div&gt;&lt;div&gt;&amp;nbsp;TPE_1_2 = T + TL_2&lt;/div&gt;&lt;div&gt;&amp;nbsp;NLLEG2 += 1&lt;/div&gt;" style="rounded=1;whiteSpace=wrap;html=1;fontSize=12;glass=0;strokeWidth=1;shadow=0;" vertex="1" parent="WIyWlLk6GJQsqaUBKTNV-1">
          <mxGeometry x="-110" y="535" width="210" height="85" as="geometry" />
        </mxCell>
        <mxCell id="gjDzlyAbSF0-AVPSgwuK-5" value="TPE_1_2" style="rounded=0;html=1;jettySize=auto;orthogonalLoop=1;fontSize=11;endArrow=block;endFill=0;endSize=8;strokeWidth=1;shadow=0;labelBackgroundColor=none;edgeStyle=orthogonalEdgeStyle;exitX=0.5;exitY=1;exitDx=0;exitDy=0;entryX=0.5;entryY=0;entryDx=0;entryDy=0;" edge="1" parent="WIyWlLk6GJQsqaUBKTNV-1" source="WIyWlLk6GJQsqaUBKTNV-10" target="gjDzlyAbSF0-AVPSgwuK-3">
          <mxGeometry x="0.0154" y="30" relative="1" as="geometry">
            <mxPoint as="offset" />
            <mxPoint x="155.00000000000045" y="380" as="sourcePoint" />
            <mxPoint x="-180" y="475" as="targetPoint" />
            <Array as="points">
              <mxPoint x="-5" y="410" />
            </Array>
          </mxGeometry>
        </mxCell>
        <mxCell id="gjDzlyAbSF0-AVPSgwuK-7" value="" style="rounded=0;html=1;jettySize=auto;orthogonalLoop=1;fontSize=11;endArrow=block;endFill=0;endSize=8;strokeWidth=1;shadow=0;labelBackgroundColor=none;edgeStyle=orthogonalEdgeStyle;exitX=0.5;exitY=1;exitDx=0;exitDy=0;" edge="1" parent="WIyWlLk6GJQsqaUBKTNV-1" source="gjDzlyAbSF0-AVPSgwuK-0">
          <mxGeometry relative="1" as="geometry">
            <mxPoint x="429.66" y="530" as="sourcePoint" />
            <mxPoint x="430" y="620" as="targetPoint" />
          </mxGeometry>
        </mxCell>
        <mxCell id="gjDzlyAbSF0-AVPSgwuK-9" style="edgeStyle=orthogonalEdgeStyle;rounded=0;orthogonalLoop=1;jettySize=auto;html=1;exitX=1;exitY=0.5;exitDx=0;exitDy=0;entryX=0.5;entryY=0;entryDx=0;entryDy=0;" edge="1" parent="WIyWlLk6GJQsqaUBKTNV-1" source="gjDzlyAbSF0-AVPSgwuK-8" target="gjDzlyAbSF0-AVPSgwuK-15">
          <mxGeometry relative="1" as="geometry">
            <mxPoint x="590" y="675" as="targetPoint" />
            <Array as="points">
              <mxPoint x="505" y="770" />
            </Array>
          </mxGeometry>
        </mxCell>
        <mxCell id="gjDzlyAbSF0-AVPSgwuK-12" style="edgeStyle=orthogonalEdgeStyle;rounded=0;orthogonalLoop=1;jettySize=auto;html=1;exitX=0.5;exitY=1;exitDx=0;exitDy=0;entryX=0.5;entryY=0;entryDx=0;entryDy=0;" edge="1" parent="WIyWlLk6GJQsqaUBKTNV-1" source="gjDzlyAbSF0-AVPSgwuK-8" target="gjDzlyAbSF0-AVPSgwuK-16">
          <mxGeometry relative="1" as="geometry">
            <mxPoint x="429.6470588235293" y="760" as="targetPoint" />
          </mxGeometry>
        </mxCell>
        <mxCell id="gjDzlyAbSF0-AVPSgwuK-8" value="x1 &amp;gt; 0" style="rhombus;whiteSpace=wrap;html=1;shadow=0;fontFamily=Helvetica;fontSize=12;align=center;strokeWidth=1;spacing=6;spacingTop=-4;" vertex="1" parent="WIyWlLk6GJQsqaUBKTNV-1">
          <mxGeometry x="355" y="620" width="150" height="110" as="geometry" />
        </mxCell>
        <mxCell id="gjDzlyAbSF0-AVPSgwuK-11" value="si" style="text;html=1;align=center;verticalAlign=middle;resizable=0;points=[];autosize=1;" vertex="1" parent="WIyWlLk6GJQsqaUBKTNV-1">
          <mxGeometry x="510" y="720" width="20" height="20" as="geometry" />
        </mxCell>
        <mxCell id="gjDzlyAbSF0-AVPSgwuK-14" value="no" style="text;html=1;align=center;verticalAlign=middle;resizable=0;points=[];autosize=1;" vertex="1" parent="WIyWlLk6GJQsqaUBKTNV-1">
          <mxGeometry x="425" y="730" width="30" height="20" as="geometry" />
        </mxCell>
        <mxCell id="gjDzlyAbSF0-AVPSgwuK-69" style="edgeStyle=orthogonalEdgeStyle;rounded=0;orthogonalLoop=1;jettySize=auto;html=1;exitX=0.5;exitY=1;exitDx=0;exitDy=0;endArrow=openAsync;endFill=0;" edge="1" parent="WIyWlLk6GJQsqaUBKTNV-1" source="gjDzlyAbSF0-AVPSgwuK-15">
          <mxGeometry relative="1" as="geometry">
            <mxPoint x="469.66666666666697" y="1080" as="targetPoint" />
          </mxGeometry>
        </mxCell>
        <mxCell id="gjDzlyAbSF0-AVPSgwuK-15" value="&lt;div&gt;x1 -= 1&amp;nbsp;&amp;nbsp;&lt;/div&gt;&lt;div&gt;&amp;nbsp; &amp;nbsp; &amp;nbsp; x -= 1&lt;span&gt;&amp;nbsp; &amp;nbsp; &amp;nbsp;&amp;nbsp;&lt;/span&gt;&lt;/div&gt;&lt;div&gt;&amp;nbsp; &amp;nbsp; TPE_2_1 = T + TA_1&lt;/div&gt;" style="rounded=0;whiteSpace=wrap;html=1;" vertex="1" parent="WIyWlLk6GJQsqaUBKTNV-1">
          <mxGeometry x="380" y="800" width="180" height="60" as="geometry" />
        </mxCell>
        <mxCell id="gjDzlyAbSF0-AVPSgwuK-70" style="edgeStyle=orthogonalEdgeStyle;rounded=0;orthogonalLoop=1;jettySize=auto;html=1;exitX=0.75;exitY=1;exitDx=0;exitDy=0;endArrow=openAsync;endFill=0;" edge="1" parent="WIyWlLk6GJQsqaUBKTNV-1" source="gjDzlyAbSF0-AVPSgwuK-16">
          <mxGeometry relative="1" as="geometry">
            <mxPoint x="470" y="970" as="targetPoint" />
          </mxGeometry>
        </mxCell>
        <mxCell id="gjDzlyAbSF0-AVPSgwuK-16" value="&lt;div&gt;TPE_2_1 = inf&lt;/div&gt;&lt;div&gt;STATUS1 = 0&lt;/div&gt;" style="rounded=0;whiteSpace=wrap;html=1;" vertex="1" parent="WIyWlLk6GJQsqaUBKTNV-1">
          <mxGeometry x="245" y="770" width="120" height="50" as="geometry" />
        </mxCell>
        <mxCell id="gjDzlyAbSF0-AVPSgwuK-21" style="edgeStyle=orthogonalEdgeStyle;rounded=0;orthogonalLoop=1;jettySize=auto;html=1;exitX=0.5;exitY=1;exitDx=0;exitDy=0;entryX=0.5;entryY=0;entryDx=0;entryDy=0;" edge="1" parent="WIyWlLk6GJQsqaUBKTNV-1" source="gjDzlyAbSF0-AVPSgwuK-18" target="gjDzlyAbSF0-AVPSgwuK-22">
          <mxGeometry relative="1" as="geometry">
            <mxPoint x="670" y="750" as="targetPoint" />
          </mxGeometry>
        </mxCell>
        <mxCell id="gjDzlyAbSF0-AVPSgwuK-23" style="edgeStyle=orthogonalEdgeStyle;rounded=0;orthogonalLoop=1;jettySize=auto;html=1;exitX=1;exitY=0.5;exitDx=0;exitDy=0;entryX=0.5;entryY=0;entryDx=0;entryDy=0;" edge="1" parent="WIyWlLk6GJQsqaUBKTNV-1" source="gjDzlyAbSF0-AVPSgwuK-18" target="gjDzlyAbSF0-AVPSgwuK-24">
          <mxGeometry relative="1" as="geometry">
            <mxPoint x="800" y="625" as="targetPoint" />
          </mxGeometry>
        </mxCell>
        <mxCell id="gjDzlyAbSF0-AVPSgwuK-18" value="x2 &amp;gt; 0" style="rhombus;whiteSpace=wrap;html=1;shadow=0;fontFamily=Helvetica;fontSize=12;align=center;strokeWidth=1;spacing=6;spacingTop=-4;" vertex="1" parent="WIyWlLk6GJQsqaUBKTNV-1">
          <mxGeometry x="530" y="570" width="150" height="110" as="geometry" />
        </mxCell>
        <mxCell id="gjDzlyAbSF0-AVPSgwuK-68" style="edgeStyle=orthogonalEdgeStyle;rounded=0;orthogonalLoop=1;jettySize=auto;html=1;exitX=0.5;exitY=1;exitDx=0;exitDy=0;endArrow=openAsync;endFill=0;" edge="1" parent="WIyWlLk6GJQsqaUBKTNV-1" source="gjDzlyAbSF0-AVPSgwuK-22">
          <mxGeometry relative="1" as="geometry">
            <mxPoint x="629.666666666667" y="1080" as="targetPoint" />
          </mxGeometry>
        </mxCell>
        <mxCell id="gjDzlyAbSF0-AVPSgwuK-22" value="&lt;div&gt;TPE_2_2 = inf&lt;/div&gt;&lt;div&gt;STATUS2 = 0&lt;/div&gt;" style="rounded=0;whiteSpace=wrap;html=1;" vertex="1" parent="WIyWlLk6GJQsqaUBKTNV-1">
          <mxGeometry x="570" y="750" width="120" height="50" as="geometry" />
        </mxCell>
        <mxCell id="gjDzlyAbSF0-AVPSgwuK-67" style="edgeStyle=orthogonalEdgeStyle;rounded=0;orthogonalLoop=1;jettySize=auto;html=1;exitX=0.5;exitY=1;exitDx=0;exitDy=0;endArrow=openAsync;endFill=0;" edge="1" parent="WIyWlLk6GJQsqaUBKTNV-1" source="gjDzlyAbSF0-AVPSgwuK-24">
          <mxGeometry relative="1" as="geometry">
            <mxPoint x="310" y="1080" as="targetPoint" />
            <Array as="points">
              <mxPoint x="737" y="1076" />
              <mxPoint x="230" y="1076" />
              <mxPoint x="230" y="1080" />
            </Array>
          </mxGeometry>
        </mxCell>
        <mxCell id="gjDzlyAbSF0-AVPSgwuK-24" value="&lt;div&gt;x2 -= 1&amp;nbsp;&amp;nbsp;&lt;/div&gt;&lt;div&gt;&amp;nbsp; &amp;nbsp; &amp;nbsp; x -= 1&lt;span&gt;&amp;nbsp; &amp;nbsp; &amp;nbsp;&amp;nbsp;&lt;/span&gt;&lt;/div&gt;&lt;div&gt;&amp;nbsp; &amp;nbsp; TPE_2_2 = T + TA_2&lt;/div&gt;" style="rounded=0;whiteSpace=wrap;html=1;" vertex="1" parent="WIyWlLk6GJQsqaUBKTNV-1">
          <mxGeometry x="647" y="680" width="180" height="60" as="geometry" />
        </mxCell>
        <mxCell id="gjDzlyAbSF0-AVPSgwuK-25" value="no" style="text;html=1;align=center;verticalAlign=middle;resizable=0;points=[];autosize=1;" vertex="1" parent="WIyWlLk6GJQsqaUBKTNV-1">
          <mxGeometry x="570" y="690" width="30" height="20" as="geometry" />
        </mxCell>
        <mxCell id="gjDzlyAbSF0-AVPSgwuK-26" value="si" style="text;html=1;align=center;verticalAlign=middle;resizable=0;points=[];autosize=1;" vertex="1" parent="WIyWlLk6GJQsqaUBKTNV-1">
          <mxGeometry x="710" y="600" width="20" height="20" as="geometry" />
        </mxCell>
        <mxCell id="gjDzlyAbSF0-AVPSgwuK-29" style="edgeStyle=orthogonalEdgeStyle;rounded=0;orthogonalLoop=1;jettySize=auto;html=1;exitX=0.5;exitY=1;exitDx=0;exitDy=0;entryX=0.5;entryY=0;entryDx=0;entryDy=0;" edge="1" parent="WIyWlLk6GJQsqaUBKTNV-1" source="gjDzlyAbSF0-AVPSgwuK-28" target="gjDzlyAbSF0-AVPSgwuK-30">
          <mxGeometry relative="1" as="geometry">
            <mxPoint x="-5" y="840" as="targetPoint" />
          </mxGeometry>
        </mxCell>
        <mxCell id="gjDzlyAbSF0-AVPSgwuK-38" style="edgeStyle=orthogonalEdgeStyle;rounded=0;orthogonalLoop=1;jettySize=auto;html=1;exitX=1;exitY=0.5;exitDx=0;exitDy=0;entryX=0.114;entryY=-0.013;entryDx=0;entryDy=0;entryPerimeter=0;" edge="1" parent="WIyWlLk6GJQsqaUBKTNV-1" source="gjDzlyAbSF0-AVPSgwuK-28" target="gjDzlyAbSF0-AVPSgwuK-39">
          <mxGeometry relative="1" as="geometry">
            <mxPoint x="120" y="690" as="targetPoint" />
          </mxGeometry>
        </mxCell>
        <mxCell id="gjDzlyAbSF0-AVPSgwuK-28" value="x &amp;lt; CAPACIDAD" style="rhombus;whiteSpace=wrap;html=1;shadow=0;fontFamily=Helvetica;fontSize=12;align=center;strokeWidth=1;spacing=6;spacingTop=-4;" vertex="1" parent="WIyWlLk6GJQsqaUBKTNV-1">
          <mxGeometry x="-80" y="675" width="150" height="110" as="geometry" />
        </mxCell>
        <mxCell id="gjDzlyAbSF0-AVPSgwuK-31" style="edgeStyle=orthogonalEdgeStyle;rounded=0;orthogonalLoop=1;jettySize=auto;html=1;exitX=0.5;exitY=1;exitDx=0;exitDy=0;" edge="1" parent="WIyWlLk6GJQsqaUBKTNV-1" source="gjDzlyAbSF0-AVPSgwuK-30">
          <mxGeometry relative="1" as="geometry">
            <mxPoint x="-5" y="1020" as="targetPoint" />
          </mxGeometry>
        </mxCell>
        <mxCell id="gjDzlyAbSF0-AVPSgwuK-32" style="edgeStyle=orthogonalEdgeStyle;rounded=0;orthogonalLoop=1;jettySize=auto;html=1;exitX=1;exitY=0.5;exitDx=0;exitDy=0;entryX=0.25;entryY=0;entryDx=0;entryDy=0;" edge="1" parent="WIyWlLk6GJQsqaUBKTNV-1" source="gjDzlyAbSF0-AVPSgwuK-30" target="gjDzlyAbSF0-AVPSgwuK-37">
          <mxGeometry relative="1" as="geometry">
            <mxPoint x="120" y="980" as="targetPoint" />
          </mxGeometry>
        </mxCell>
        <mxCell id="gjDzlyAbSF0-AVPSgwuK-30" value="STATUS2 == 1" style="rhombus;whiteSpace=wrap;html=1;shadow=0;fontFamily=Helvetica;fontSize=12;align=center;strokeWidth=1;spacing=6;spacingTop=-4;" vertex="1" parent="WIyWlLk6GJQsqaUBKTNV-1">
          <mxGeometry x="-80" y="850" width="150" height="110" as="geometry" />
        </mxCell>
        <mxCell id="gjDzlyAbSF0-AVPSgwuK-33" value="si" style="text;html=1;align=center;verticalAlign=middle;resizable=0;points=[];autosize=1;" vertex="1" parent="WIyWlLk6GJQsqaUBKTNV-1">
          <mxGeometry y="800" width="20" height="20" as="geometry" />
        </mxCell>
        <mxCell id="gjDzlyAbSF0-AVPSgwuK-34" value="si" style="text;html=1;align=center;verticalAlign=middle;resizable=0;points=[];autosize=1;" vertex="1" parent="WIyWlLk6GJQsqaUBKTNV-1">
          <mxGeometry x="-30" y="970" width="20" height="20" as="geometry" />
        </mxCell>
        <mxCell id="gjDzlyAbSF0-AVPSgwuK-61" style="edgeStyle=orthogonalEdgeStyle;rounded=0;orthogonalLoop=1;jettySize=auto;html=1;exitX=0.5;exitY=1;exitDx=0;exitDy=0;" edge="1" parent="WIyWlLk6GJQsqaUBKTNV-1" source="gjDzlyAbSF0-AVPSgwuK-35">
          <mxGeometry relative="1" as="geometry">
            <mxPoint x="-530" y="1030" as="targetPoint" />
            <Array as="points">
              <mxPoint x="-5" y="1085" />
              <mxPoint x="-530" y="1085" />
            </Array>
          </mxGeometry>
        </mxCell>
        <mxCell id="gjDzlyAbSF0-AVPSgwuK-35" value="x2 +=1&lt;br&gt;x += 1" style="rounded=1;whiteSpace=wrap;html=1;fontSize=12;glass=0;strokeWidth=1;shadow=0;" vertex="1" parent="WIyWlLk6GJQsqaUBKTNV-1">
          <mxGeometry x="-65" y="1020" width="120" height="40" as="geometry" />
        </mxCell>
        <mxCell id="gjDzlyAbSF0-AVPSgwuK-65" style="edgeStyle=orthogonalEdgeStyle;rounded=0;orthogonalLoop=1;jettySize=auto;html=1;exitX=0.25;exitY=1;exitDx=0;exitDy=0;endArrow=openAsync;endFill=0;" edge="1" parent="WIyWlLk6GJQsqaUBKTNV-1" source="gjDzlyAbSF0-AVPSgwuK-37">
          <mxGeometry relative="1" as="geometry">
            <mxPoint x="-10" y="1100" as="targetPoint" />
          </mxGeometry>
        </mxCell>
        <mxCell id="gjDzlyAbSF0-AVPSgwuK-37" value="&lt;div&gt;STATUS2 = 1&lt;/div&gt;&lt;div&gt;TPE_2_2 = T + TA_2&lt;/div&gt;" style="rounded=0;whiteSpace=wrap;html=1;" vertex="1" parent="WIyWlLk6GJQsqaUBKTNV-1">
          <mxGeometry x="70" y="1015" width="170" height="50" as="geometry" />
        </mxCell>
        <mxCell id="gjDzlyAbSF0-AVPSgwuK-66" style="edgeStyle=orthogonalEdgeStyle;rounded=0;orthogonalLoop=1;jettySize=auto;html=1;exitX=0.75;exitY=1;exitDx=0;exitDy=0;endArrow=openAsync;endFill=0;" edge="1" parent="WIyWlLk6GJQsqaUBKTNV-1" source="gjDzlyAbSF0-AVPSgwuK-39">
          <mxGeometry relative="1" as="geometry">
            <mxPoint y="1090" as="targetPoint" />
            <Array as="points">
              <mxPoint x="303" y="1080" />
              <mxPoint x="-260" y="1080" />
              <mxPoint x="-260" y="1090" />
              <mxPoint x="-10" y="1090" />
            </Array>
          </mxGeometry>
        </mxCell>
        <mxCell id="gjDzlyAbSF0-AVPSgwuK-39" value="PACIENTES_2_NO_ATENDIDOS += 1" style="rounded=0;whiteSpace=wrap;html=1;" vertex="1" parent="WIyWlLk6GJQsqaUBKTNV-1">
          <mxGeometry x="145" y="930" width="210" height="60" as="geometry" />
        </mxCell>
        <mxCell id="gjDzlyAbSF0-AVPSgwuK-40" value="no" style="text;html=1;align=center;verticalAlign=middle;resizable=0;points=[];autosize=1;" vertex="1" parent="WIyWlLk6GJQsqaUBKTNV-1">
          <mxGeometry x="90" y="740" width="30" height="20" as="geometry" />
        </mxCell>
        <mxCell id="gjDzlyAbSF0-AVPSgwuK-41" value="no" style="text;html=1;align=center;verticalAlign=middle;resizable=0;points=[];autosize=1;" vertex="1" parent="WIyWlLk6GJQsqaUBKTNV-1">
          <mxGeometry x="80" y="940" width="30" height="20" as="geometry" />
        </mxCell>
        <mxCell id="gjDzlyAbSF0-AVPSgwuK-44" style="edgeStyle=orthogonalEdgeStyle;rounded=0;orthogonalLoop=1;jettySize=auto;html=1;exitX=0;exitY=0.5;exitDx=0;exitDy=0;entryX=0.5;entryY=0;entryDx=0;entryDy=0;" edge="1" parent="WIyWlLk6GJQsqaUBKTNV-1" source="gjDzlyAbSF0-AVPSgwuK-43" target="gjDzlyAbSF0-AVPSgwuK-45">
          <mxGeometry relative="1" as="geometry">
            <mxPoint x="-450" y="674.4705882352941" as="targetPoint" />
          </mxGeometry>
        </mxCell>
        <mxCell id="gjDzlyAbSF0-AVPSgwuK-46" style="edgeStyle=orthogonalEdgeStyle;rounded=0;orthogonalLoop=1;jettySize=auto;html=1;exitX=0.5;exitY=1;exitDx=0;exitDy=0;" edge="1" parent="WIyWlLk6GJQsqaUBKTNV-1" source="gjDzlyAbSF0-AVPSgwuK-43" target="gjDzlyAbSF0-AVPSgwuK-47">
          <mxGeometry relative="1" as="geometry">
            <mxPoint x="-324.47058823529414" y="820" as="targetPoint" />
          </mxGeometry>
        </mxCell>
        <mxCell id="gjDzlyAbSF0-AVPSgwuK-43" value="x &amp;lt; CAPACIDAD" style="rhombus;whiteSpace=wrap;html=1;shadow=0;fontFamily=Helvetica;fontSize=12;align=center;strokeWidth=1;spacing=6;spacingTop=-4;" vertex="1" parent="WIyWlLk6GJQsqaUBKTNV-1">
          <mxGeometry x="-270" y="630" width="150" height="110" as="geometry" />
        </mxCell>
        <mxCell id="gjDzlyAbSF0-AVPSgwuK-56" style="edgeStyle=orthogonalEdgeStyle;rounded=0;orthogonalLoop=1;jettySize=auto;html=1;exitX=0;exitY=0.5;exitDx=0;exitDy=0;" edge="1" parent="WIyWlLk6GJQsqaUBKTNV-1" source="gjDzlyAbSF0-AVPSgwuK-45">
          <mxGeometry relative="1" as="geometry">
            <mxPoint x="-530" y="220" as="targetPoint" />
          </mxGeometry>
        </mxCell>
        <mxCell id="gjDzlyAbSF0-AVPSgwuK-45" value="PACIENTES_1_NO_ATENDIDOS += 1" style="rounded=0;whiteSpace=wrap;html=1;" vertex="1" parent="WIyWlLk6GJQsqaUBKTNV-1">
          <mxGeometry x="-430" y="765" width="210" height="60" as="geometry" />
        </mxCell>
        <mxCell id="gjDzlyAbSF0-AVPSgwuK-48" style="edgeStyle=orthogonalEdgeStyle;rounded=0;orthogonalLoop=1;jettySize=auto;html=1;exitX=0;exitY=0.5;exitDx=0;exitDy=0;" edge="1" parent="WIyWlLk6GJQsqaUBKTNV-1" source="gjDzlyAbSF0-AVPSgwuK-47" target="gjDzlyAbSF0-AVPSgwuK-51">
          <mxGeometry relative="1" as="geometry">
            <mxPoint x="-500" y="950" as="targetPoint" />
          </mxGeometry>
        </mxCell>
        <mxCell id="gjDzlyAbSF0-AVPSgwuK-49" style="edgeStyle=orthogonalEdgeStyle;rounded=0;orthogonalLoop=1;jettySize=auto;html=1;exitX=0.5;exitY=1;exitDx=0;exitDy=0;entryX=0.625;entryY=0;entryDx=0;entryDy=0;entryPerimeter=0;" edge="1" parent="WIyWlLk6GJQsqaUBKTNV-1" source="gjDzlyAbSF0-AVPSgwuK-47" target="gjDzlyAbSF0-AVPSgwuK-50">
          <mxGeometry relative="1" as="geometry">
            <mxPoint x="-324.47058823529414" y="1000" as="targetPoint" />
          </mxGeometry>
        </mxCell>
        <mxCell id="gjDzlyAbSF0-AVPSgwuK-47" value="STATUS1 == 1" style="rhombus;whiteSpace=wrap;html=1;shadow=0;fontFamily=Helvetica;fontSize=12;align=center;strokeWidth=1;spacing=6;spacingTop=-4;" vertex="1" parent="WIyWlLk6GJQsqaUBKTNV-1">
          <mxGeometry x="-270" y="830" width="150" height="110" as="geometry" />
        </mxCell>
        <mxCell id="gjDzlyAbSF0-AVPSgwuK-60" style="edgeStyle=orthogonalEdgeStyle;rounded=0;orthogonalLoop=1;jettySize=auto;html=1;exitX=0;exitY=0.5;exitDx=0;exitDy=0;" edge="1" parent="WIyWlLk6GJQsqaUBKTNV-1" source="gjDzlyAbSF0-AVPSgwuK-50">
          <mxGeometry relative="1" as="geometry">
            <mxPoint x="-530" y="960" as="targetPoint" />
          </mxGeometry>
        </mxCell>
        <mxCell id="gjDzlyAbSF0-AVPSgwuK-50" value="x1 +=1&lt;br&gt;x += 1" style="rounded=1;whiteSpace=wrap;html=1;fontSize=12;glass=0;strokeWidth=1;shadow=0;" vertex="1" parent="WIyWlLk6GJQsqaUBKTNV-1">
          <mxGeometry x="-270" y="1010" width="120" height="40" as="geometry" />
        </mxCell>
        <mxCell id="gjDzlyAbSF0-AVPSgwuK-59" style="edgeStyle=orthogonalEdgeStyle;rounded=0;orthogonalLoop=1;jettySize=auto;html=1;exitX=0;exitY=0.5;exitDx=0;exitDy=0;" edge="1" parent="WIyWlLk6GJQsqaUBKTNV-1" source="gjDzlyAbSF0-AVPSgwuK-51">
          <mxGeometry relative="1" as="geometry">
            <mxPoint x="-530" y="790" as="targetPoint" />
          </mxGeometry>
        </mxCell>
        <mxCell id="gjDzlyAbSF0-AVPSgwuK-51" value="&lt;div&gt;STATUS1 = 1&lt;/div&gt;&lt;div&gt;TPE_2_1 = T + TA_1&lt;/div&gt;" style="rounded=0;whiteSpace=wrap;html=1;" vertex="1" parent="WIyWlLk6GJQsqaUBKTNV-1">
          <mxGeometry x="-400" y="940" width="170" height="50" as="geometry" />
        </mxCell>
        <mxCell id="gjDzlyAbSF0-AVPSgwuK-52" value="si" style="text;html=1;align=center;verticalAlign=middle;resizable=0;points=[];autosize=1;" vertex="1" parent="WIyWlLk6GJQsqaUBKTNV-1">
          <mxGeometry x="-190" y="970" width="20" height="20" as="geometry" />
        </mxCell>
        <mxCell id="gjDzlyAbSF0-AVPSgwuK-53" value="no" style="text;html=1;align=center;verticalAlign=middle;resizable=0;points=[];autosize=1;" vertex="1" parent="WIyWlLk6GJQsqaUBKTNV-1">
          <mxGeometry x="-350" y="875" width="30" height="20" as="geometry" />
        </mxCell>
        <mxCell id="gjDzlyAbSF0-AVPSgwuK-54" value="no" style="text;html=1;align=center;verticalAlign=middle;resizable=0;points=[];autosize=1;" vertex="1" parent="WIyWlLk6GJQsqaUBKTNV-1">
          <mxGeometry x="-360" y="710" width="30" height="20" as="geometry" />
        </mxCell>
        <mxCell id="gjDzlyAbSF0-AVPSgwuK-55" value="si" style="text;html=1;align=center;verticalAlign=middle;resizable=0;points=[];autosize=1;" vertex="1" parent="WIyWlLk6GJQsqaUBKTNV-1">
          <mxGeometry x="-190" y="770" width="20" height="20" as="geometry" />
        </mxCell>
        <mxCell id="gjDzlyAbSF0-AVPSgwuK-71" value="" style="endArrow=classic;html=1;entryX=0;entryY=0.5;entryDx=0;entryDy=0;" edge="1" parent="WIyWlLk6GJQsqaUBKTNV-1" target="WIyWlLk6GJQsqaUBKTNV-6">
          <mxGeometry width="50" height="50" relative="1" as="geometry">
            <mxPoint x="-530" y="220" as="sourcePoint" />
            <mxPoint x="-120" y="260" as="targetPoint" />
          </mxGeometry>
        </mxCell>
      </root>
    </mxGraphModel>
  </diagram>
</mxfile>
